# MagicaVoxel @ ephtracy

# material
mtllib Star1.mtl
usemtl palette

# normals
vn -1 0 0
vn 1 0 0
vn 0 0 1
vn 0 0 -1
vn 0 -1 0
vn 0 1 0

# texcoords
vt 0.115234 0.5
vt 0.958984 0.5

# verts and faces
v -7.5 7 0.5
v -7.5 7 -0.5
v -7.5 8 0.5
v -7.5 8 -0.5
f -2/2/1 -3/2/1 -4/2/1
f -1/2/1 -3/2/1 -2/2/1
v -6.5 6 1.5
v -6.5 6 -1.5
v -6.5 7 0.5
v -6.5 7 -0.5
v -6.5 8 0.5
v -6.5 8 -0.5
v -6.5 9 1.5
v -6.5 9 -1.5
f -6/1/1 -7/1/1 -8/1/1
f -5/1/1 -7/1/1 -6/1/1
f -4/1/1 -6/1/1 -8/1/1
f -3/1/1 -7/1/1 -5/1/1
f -2/1/1 -4/1/1 -8/1/1
f -2/1/1 -3/1/1 -4/1/1
f -1/1/1 -7/1/1 -3/1/1
f -1/1/1 -3/1/1 -2/1/1
v -3.5 6 1.5
v -3.5 6 -1.5
v -3.5 7 0.5
v -3.5 7 -0.5
v -3.5 8 0.5
v -3.5 8 -0.5
v -3.5 9 1.5
v -3.5 9 -1.5
f -6/1/1 -7/1/1 -8/1/1
f -5/1/1 -7/1/1 -6/1/1
f -4/1/1 -6/1/1 -8/1/1
f -3/1/1 -7/1/1 -5/1/1
f -2/1/1 -4/1/1 -8/1/1
f -2/1/1 -3/1/1 -4/1/1
f -1/1/1 -7/1/1 -3/1/1
f -1/1/1 -3/1/1 -2/1/1
v -2.5 5 1.5
v -2.5 5 -1.5
v -2.5 6 2.5
v -2.5 6 1.5
v -2.5 6 -1.5
v -2.5 6 -2.5
v -2.5 9 2.5
v -2.5 9 1.5
v -2.5 9 -1.5
v -2.5 9 -2.5
v -2.5 10 1.5
v -2.5 10 -1.5
f -9/2/1 -11/2/1 -12/2/1
f -8/2/1 -11/2/1 -9/2/1
f -6/2/1 -9/2/1 -10/2/1
f -5/2/1 -9/2/1 -6/2/1
f -4/2/1 -7/2/1 -8/2/1
f -3/2/1 -7/2/1 -4/2/1
f -2/2/1 -4/2/1 -5/2/1
f -1/2/1 -4/2/1 -2/2/1
v -1.5 1 1.5
v -1.5 1 -1.5
v -1.5 2 1.5
v -1.5 2 -1.5
v -1.5 4 1.5
v -1.5 4 -1.5
v -1.5 5 2.5
v -1.5 5 1.5
v -1.5 5 -1.5
v -1.5 5 -2.5
v -1.5 6 6.5
v -1.5 6 5.5
v -1.5 6 3.5
v -1.5 6 2.5
v -1.5 6 1.5
v -1.5 6 -1.5
v -1.5 6 -2.5
v -1.5 6 -3.5
v -1.5 6 -5.5
v -1.5 6 -6.5
v -1.5 9 6.5
v -1.5 9 5.5
v -1.5 9 3.5
v -1.5 9 2.5
v -1.5 9 1.5
v -1.5 9 -1.5
v -1.5 9 -2.5
v -1.5 9 -3.5
v -1.5 9 -5.5
v -1.5 9 -6.5
v -1.5 10 2.5
v -1.5 10 1.5
v -1.5 10 -1.5
v -1.5 10 -2.5
v -1.5 11 1.5
v -1.5 11 -1.5
v -1.5 13 1.5
v -1.5 13 -1.5
v -1.5 14 1.5
v -1.5 14 -1.5
f -38/1/1 -39/1/1 -40/1/1
f -37/1/1 -39/1/1 -38/1/1
f -33/1/1 -35/1/1 -36/1/1
f -32/1/1 -35/1/1 -33/1/1
f -27/2/1 -33/2/1 -34/2/1
f -26/2/1 -33/2/1 -27/2/1
f -25/2/1 -31/2/1 -32/2/1
f -24/2/1 -31/2/1 -25/2/1
f -20/1/1 -29/1/1 -30/1/1
f -19/1/1 -29/1/1 -20/1/1
f -18/1/1 -27/1/1 -28/1/1
f -17/1/1 -27/1/1 -18/1/1
f -14/1/1 -23/1/1 -24/1/1
f -13/1/1 -23/1/1 -14/1/1
f -12/1/1 -21/1/1 -22/1/1
f -11/1/1 -21/1/1 -12/1/1
f -10/2/1 -16/2/1 -17/2/1
f -9/2/1 -16/2/1 -10/2/1
f -8/2/1 -14/2/1 -15/2/1
f -7/2/1 -14/2/1 -8/2/1
f -6/1/1 -8/1/1 -9/1/1
f -5/1/1 -8/1/1 -6/1/1
f -2/1/1 -3/1/1 -4/1/1
f -1/1/1 -3/1/1 -2/1/1
v -0.5 0 0.5
v -0.5 0 -0.5
v -0.5 1 0.5
v -0.5 1 -0.5
v -0.5 2 0.5
v -0.5 2 -0.5
v -0.5 4 0.5
v -0.5 4 -0.5
v -0.5 7 7.5
v -0.5 7 6.5
v -0.5 7 5.5
v -0.5 7 3.5
v -0.5 7 -3.5
v -0.5 7 -5.5
v -0.5 7 -6.5
v -0.5 7 -7.5
v -0.5 8 7.5
v -0.5 8 6.5
v -0.5 8 5.5
v -0.5 8 3.5
v -0.5 8 -3.5
v -0.5 8 -5.5
v -0.5 8 -6.5
v -0.5 8 -7.5
v -0.5 11 0.5
v -0.5 11 -0.5
v -0.5 13 0.5
v -0.5 13 -0.5
v -0.5 14 0.5
v -0.5 14 -0.5
v -0.5 15 0.5
v -0.5 15 -0.5
f -30/2/1 -31/2/1 -32/2/1
f -29/2/1 -31/2/1 -30/2/1
f -26/2/1 -27/2/1 -28/2/1
f -25/2/1 -27/2/1 -26/2/1
f -16/2/1 -23/2/1 -24/2/1
f -15/2/1 -23/2/1 -16/2/1
f -14/2/1 -21/2/1 -22/2/1
f -13/2/1 -21/2/1 -14/2/1
f -12/2/1 -19/2/1 -20/2/1
f -11/2/1 -19/2/1 -12/2/1
f -10/2/1 -17/2/1 -18/2/1
f -9/2/1 -17/2/1 -10/2/1
f -6/2/1 -7/2/1 -8/2/1
f -5/2/1 -7/2/1 -6/2/1
f -2/2/1 -3/2/1 -4/2/1
f -1/2/1 -3/2/1 -2/2/1
v 5.5 6 1.5
v 5.5 6 -1.5
v 5.5 7 0.5
v 5.5 7 -0.5
v 5.5 8 0.5
v 5.5 8 -0.5
v 5.5 9 1.5
v 5.5 9 -1.5
f -6/1/1 -7/1/1 -8/1/1
f -5/1/1 -7/1/1 -6/1/1
f -4/1/1 -6/1/1 -8/1/1
f -3/1/1 -7/1/1 -5/1/1
f -2/1/1 -4/1/1 -8/1/1
f -2/1/1 -3/1/1 -4/1/1
f -1/1/1 -7/1/1 -3/1/1
f -1/1/1 -3/1/1 -2/1/1
v -5.5 6 1.5
v -5.5 6 -1.5
v -5.5 7 0.5
v -5.5 7 -0.5
v -5.5 8 0.5
v -5.5 8 -0.5
v -5.5 9 1.5
v -5.5 9 -1.5
f -8/1/2 -7/1/2 -6/1/2
f -6/1/2 -7/1/2 -5/1/2
f -8/1/2 -6/1/2 -4/1/2
f -5/1/2 -7/1/2 -3/1/2
f -8/1/2 -4/1/2 -2/1/2
f -4/1/2 -3/1/2 -2/1/2
f -3/1/2 -7/1/2 -1/1/2
f -2/1/2 -3/1/2 -1/1/2
v 0.5 0 0.5
v 0.5 0 -0.5
v 0.5 1 0.5
v 0.5 1 -0.5
v 0.5 2 0.5
v 0.5 2 -0.5
v 0.5 4 0.5
v 0.5 4 -0.5
v 0.5 7 7.5
v 0.5 7 6.5
v 0.5 7 5.5
v 0.5 7 3.5
v 0.5 7 -3.5
v 0.5 7 -5.5
v 0.5 7 -6.5
v 0.5 7 -7.5
v 0.5 8 7.5
v 0.5 8 6.5
v 0.5 8 5.5
v 0.5 8 3.5
v 0.5 8 -3.5
v 0.5 8 -5.5
v 0.5 8 -6.5
v 0.5 8 -7.5
v 0.5 11 0.5
v 0.5 11 -0.5
v 0.5 13 0.5
v 0.5 13 -0.5
v 0.5 14 0.5
v 0.5 14 -0.5
v 0.5 15 0.5
v 0.5 15 -0.5
f -32/2/2 -31/2/2 -30/2/2
f -30/2/2 -31/2/2 -29/2/2
f -28/2/2 -27/2/2 -26/2/2
f -26/2/2 -27/2/2 -25/2/2
f -24/2/2 -23/2/2 -16/2/2
f -16/2/2 -23/2/2 -15/2/2
f -22/2/2 -21/2/2 -14/2/2
f -14/2/2 -21/2/2 -13/2/2
f -20/2/2 -19/2/2 -12/2/2
f -12/2/2 -19/2/2 -11/2/2
f -18/2/2 -17/2/2 -10/2/2
f -10/2/2 -17/2/2 -9/2/2
f -8/2/2 -7/2/2 -6/2/2
f -6/2/2 -7/2/2 -5/2/2
f -4/2/2 -3/2/2 -2/2/2
f -2/2/2 -3/2/2 -1/2/2
v 1.5 1 1.5
v 1.5 1 -1.5
v 1.5 2 1.5
v 1.5 2 -1.5
v 1.5 4 1.5
v 1.5 4 -1.5
v 1.5 5 2.5
v 1.5 5 1.5
v 1.5 5 -1.5
v 1.5 5 -2.5
v 1.5 6 6.5
v 1.5 6 5.5
v 1.5 6 3.5
v 1.5 6 2.5
v 1.5 6 1.5
v 1.5 6 -1.5
v 1.5 6 -2.5
v 1.5 6 -3.5
v 1.5 6 -5.5
v 1.5 6 -6.5
v 1.5 9 6.5
v 1.5 9 5.5
v 1.5 9 3.5
v 1.5 9 2.5
v 1.5 9 1.5
v 1.5 9 -1.5
v 1.5 9 -2.5
v 1.5 9 -3.5
v 1.5 9 -5.5
v 1.5 9 -6.5
v 1.5 10 2.5
v 1.5 10 1.5
v 1.5 10 -1.5
v 1.5 10 -2.5
v 1.5 11 1.5
v 1.5 11 -1.5
v 1.5 13 1.5
v 1.5 13 -1.5
v 1.5 14 1.5
v 1.5 14 -1.5
f -40/1/2 -39/1/2 -38/1/2
f -38/1/2 -39/1/2 -37/1/2
f -36/1/2 -35/1/2 -33/1/2
f -33/1/2 -35/1/2 -32/1/2
f -34/2/2 -33/2/2 -27/2/2
f -27/2/2 -33/2/2 -26/2/2
f -32/2/2 -31/2/2 -25/2/2
f -25/2/2 -31/2/2 -24/2/2
f -30/1/2 -29/1/2 -20/1/2
f -20/1/2 -29/1/2 -19/1/2
f -28/1/2 -27/1/2 -18/1/2
f -18/1/2 -27/1/2 -17/1/2
f -24/1/2 -23/1/2 -14/1/2
f -14/1/2 -23/1/2 -13/1/2
f -22/1/2 -21/1/2 -12/1/2
f -12/1/2 -21/1/2 -11/1/2
f -17/2/2 -16/2/2 -10/2/2
f -10/2/2 -16/2/2 -9/2/2
f -15/2/2 -14/2/2 -8/2/2
f -8/2/2 -14/2/2 -7/2/2
f -9/1/2 -8/1/2 -6/1/2
f -6/1/2 -8/1/2 -5/1/2
f -4/1/2 -3/1/2 -2/1/2
f -2/1/2 -3/1/2 -1/1/2
v 2.5 5 1.5
v 2.5 5 -1.5
v 2.5 6 2.5
v 2.5 6 1.5
v 2.5 6 -1.5
v 2.5 6 -2.5
v 2.5 9 2.5
v 2.5 9 1.5
v 2.5 9 -1.5
v 2.5 9 -2.5
v 2.5 10 1.5
v 2.5 10 -1.5
f -12/2/2 -11/2/2 -9/2/2
f -9/2/2 -11/2/2 -8/2/2
f -10/2/2 -9/2/2 -6/2/2
f -6/2/2 -9/2/2 -5/2/2
f -8/2/2 -7/2/2 -4/2/2
f -4/2/2 -7/2/2 -3/2/2
f -5/2/2 -4/2/2 -2/2/2
f -2/2/2 -4/2/2 -1/2/2
v 3.5 6 1.5
v 3.5 6 -1.5
v 3.5 7 0.5
v 3.5 7 -0.5
v 3.5 8 0.5
v 3.5 8 -0.5
v 3.5 9 1.5
v 3.5 9 -1.5
f -8/1/2 -7/1/2 -6/1/2
f -6/1/2 -7/1/2 -5/1/2
f -8/1/2 -6/1/2 -4/1/2
f -5/1/2 -7/1/2 -3/1/2
f -8/1/2 -4/1/2 -2/1/2
f -4/1/2 -3/1/2 -2/1/2
f -3/1/2 -7/1/2 -1/1/2
f -2/1/2 -3/1/2 -1/1/2
v 6.5 6 1.5
v 6.5 6 -1.5
v 6.5 7 0.5
v 6.5 7 -0.5
v 6.5 8 0.5
v 6.5 8 -0.5
v 6.5 9 1.5
v 6.5 9 -1.5
f -8/1/2 -7/1/2 -6/1/2
f -6/1/2 -7/1/2 -5/1/2
f -8/1/2 -6/1/2 -4/1/2
f -5/1/2 -7/1/2 -3/1/2
f -8/1/2 -4/1/2 -2/1/2
f -4/1/2 -3/1/2 -2/1/2
f -3/1/2 -7/1/2 -1/1/2
f -2/1/2 -3/1/2 -1/1/2
v 7.5 7 0.5
v 7.5 7 -0.5
v 7.5 8 0.5
v 7.5 8 -0.5
f -4/2/2 -3/2/2 -2/2/2
f -2/2/2 -3/2/2 -1/2/2
v -0.5 7 7.5
v -0.5 8 7.5
v 0.5 7 7.5
v 0.5 8 7.5
f -2/2/3 -3/2/3 -4/2/3
f -1/2/3 -3/2/3 -2/2/3
v -1.5 6 6.5
v -1.5 9 6.5
v -0.5 7 6.5
v -0.5 8 6.5
v 0.5 7 6.5
v 0.5 8 6.5
v 1.5 6 6.5
v 1.5 9 6.5
f -6/1/3 -7/1/3 -8/1/3
f -5/1/3 -7/1/3 -6/1/3
f -4/1/3 -6/1/3 -8/1/3
f -3/1/3 -7/1/3 -5/1/3
f -2/1/3 -4/1/3 -8/1/3
f -2/1/3 -3/1/3 -4/1/3
f -1/1/3 -7/1/3 -3/1/3
f -1/1/3 -3/1/3 -2/1/3
v -1.5 6 3.5
v -1.5 9 3.5
v -0.5 7 3.5
v -0.5 8 3.5
v 0.5 7 3.5
v 0.5 8 3.5
v 1.5 6 3.5
v 1.5 9 3.5
f -6/1/3 -7/1/3 -8/1/3
f -5/1/3 -7/1/3 -6/1/3
f -4/1/3 -6/1/3 -8/1/3
f -3/1/3 -7/1/3 -5/1/3
f -2/1/3 -4/1/3 -8/1/3
f -2/1/3 -3/1/3 -4/1/3
f -1/1/3 -7/1/3 -3/1/3
f -1/1/3 -3/1/3 -2/1/3
v -2.5 6 2.5
v -2.5 9 2.5
v -1.5 5 2.5
v -1.5 6 2.5
v -1.5 9 2.5
v -1.5 10 2.5
v 1.5 5 2.5
v 1.5 6 2.5
v 1.5 9 2.5
v 1.5 10 2.5
v 2.5 6 2.5
v 2.5 9 2.5
f -9/2/3 -11/2/3 -12/2/3
f -8/2/3 -11/2/3 -9/2/3
f -6/2/3 -9/2/3 -10/2/3
f -5/2/3 -9/2/3 -6/2/3
f -4/2/3 -7/2/3 -8/2/3
f -3/2/3 -7/2/3 -4/2/3
f -2/2/3 -4/2/3 -5/2/3
f -1/2/3 -4/2/3 -2/2/3
v -6.5 6 1.5
v -6.5 9 1.5
v -5.5 6 1.5
v -5.5 9 1.5
v -3.5 6 1.5
v -3.5 9 1.5
v -2.5 5 1.5
v -2.5 6 1.5
v -2.5 9 1.5
v -2.5 10 1.5
v -1.5 1 1.5
v -1.5 2 1.5
v -1.5 4 1.5
v -1.5 5 1.5
v -1.5 6 1.5
v -1.5 9 1.5
v -1.5 10 1.5
v -1.5 11 1.5
v -1.5 13 1.5
v -1.5 14 1.5
v 1.5 1 1.5
v 1.5 2 1.5
v 1.5 4 1.5
v 1.5 5 1.5
v 1.5 6 1.5
v 1.5 9 1.5
v 1.5 10 1.5
v 1.5 11 1.5
v 1.5 13 1.5
v 1.5 14 1.5
v 2.5 5 1.5
v 2.5 6 1.5
v 2.5 9 1.5
v 2.5 10 1.5
v 3.5 6 1.5
v 3.5 9 1.5
v 5.5 6 1.5
v 5.5 9 1.5
v 6.5 6 1.5
v 6.5 9 1.5
f -38/1/3 -39/1/3 -40/1/3
f -37/1/3 -39/1/3 -38/1/3
f -33/1/3 -35/1/3 -36/1/3
f -32/1/3 -35/1/3 -33/1/3
f -27/2/3 -33/2/3 -34/2/3
f -26/2/3 -33/2/3 -27/2/3
f -25/2/3 -31/2/3 -32/2/3
f -24/2/3 -31/2/3 -25/2/3
f -20/1/3 -29/1/3 -30/1/3
f -19/1/3 -29/1/3 -20/1/3
f -18/1/3 -27/1/3 -28/1/3
f -17/1/3 -27/1/3 -18/1/3
f -14/1/3 -23/1/3 -24/1/3
f -13/1/3 -23/1/3 -14/1/3
f -12/1/3 -21/1/3 -22/1/3
f -11/1/3 -21/1/3 -12/1/3
f -10/2/3 -16/2/3 -17/2/3
f -9/2/3 -16/2/3 -10/2/3
f -8/2/3 -14/2/3 -15/2/3
f -7/2/3 -14/2/3 -8/2/3
f -6/1/3 -8/1/3 -9/1/3
f -5/1/3 -8/1/3 -6/1/3
f -2/1/3 -3/1/3 -4/1/3
f -1/1/3 -3/1/3 -2/1/3
v -7.5 7 0.5
v -7.5 8 0.5
v -6.5 7 0.5
v -6.5 8 0.5
v -5.5 7 0.5
v -5.5 8 0.5
v -3.5 7 0.5
v -3.5 8 0.5
v -0.5 0 0.5
v -0.5 1 0.5
v -0.5 2 0.5
v -0.5 4 0.5
v -0.5 11 0.5
v -0.5 13 0.5
v -0.5 14 0.5
v -0.5 15 0.5
v 0.5 0 0.5
v 0.5 1 0.5
v 0.5 2 0.5
v 0.5 4 0.5
v 0.5 11 0.5
v 0.5 13 0.5
v 0.5 14 0.5
v 0.5 15 0.5
v 3.5 7 0.5
v 3.5 8 0.5
v 5.5 7 0.5
v 5.5 8 0.5
v 6.5 7 0.5
v 6.5 8 0.5
v 7.5 7 0.5
v 7.5 8 0.5
f -30/2/3 -31/2/3 -32/2/3
f -29/2/3 -31/2/3 -30/2/3
f -26/2/3 -27/2/3 -28/2/3
f -25/2/3 -27/2/3 -26/2/3
f -16/2/3 -23/2/3 -24/2/3
f -15/2/3 -23/2/3 -16/2/3
f -14/2/3 -21/2/3 -22/2/3
f -13/2/3 -21/2/3 -14/2/3
f -12/2/3 -19/2/3 -20/2/3
f -11/2/3 -19/2/3 -12/2/3
f -10/2/3 -17/2/3 -18/2/3
f -9/2/3 -17/2/3 -10/2/3
f -6/2/3 -7/2/3 -8/2/3
f -5/2/3 -7/2/3 -6/2/3
f -2/2/3 -3/2/3 -4/2/3
f -1/2/3 -3/2/3 -2/2/3
v -1.5 6 -5.5
v -1.5 9 -5.5
v -0.5 7 -5.5
v -0.5 8 -5.5
v 0.5 7 -5.5
v 0.5 8 -5.5
v 1.5 6 -5.5
v 1.5 9 -5.5
f -6/1/3 -7/1/3 -8/1/3
f -5/1/3 -7/1/3 -6/1/3
f -4/1/3 -6/1/3 -8/1/3
f -3/1/3 -7/1/3 -5/1/3
f -2/1/3 -4/1/3 -8/1/3
f -2/1/3 -3/1/3 -4/1/3
f -1/1/3 -7/1/3 -3/1/3
f -1/1/3 -3/1/3 -2/1/3
v -1.5 6 5.5
v -1.5 9 5.5
v -0.5 7 5.5
v -0.5 8 5.5
v 0.5 7 5.5
v 0.5 8 5.5
v 1.5 6 5.5
v 1.5 9 5.5
f -8/1/4 -7/1/4 -6/1/4
f -6/1/4 -7/1/4 -5/1/4
f -8/1/4 -6/1/4 -4/1/4
f -5/1/4 -7/1/4 -3/1/4
f -8/1/4 -4/1/4 -2/1/4
f -4/1/4 -3/1/4 -2/1/4
f -3/1/4 -7/1/4 -1/1/4
f -2/1/4 -3/1/4 -1/1/4
v -7.5 7 -0.5
v -7.5 8 -0.5
v -6.5 7 -0.5
v -6.5 8 -0.5
v -5.5 7 -0.5
v -5.5 8 -0.5
v -3.5 7 -0.5
v -3.5 8 -0.5
v -0.5 0 -0.5
v -0.5 1 -0.5
v -0.5 2 -0.5
v -0.5 4 -0.5
v -0.5 11 -0.5
v -0.5 13 -0.5
v -0.5 14 -0.5
v -0.5 15 -0.5
v 0.5 0 -0.5
v 0.5 1 -0.5
v 0.5 2 -0.5
v 0.5 4 -0.5
v 0.5 11 -0.5
v 0.5 13 -0.5
v 0.5 14 -0.5
v 0.5 15 -0.5
v 3.5 7 -0.5
v 3.5 8 -0.5
v 5.5 7 -0.5
v 5.5 8 -0.5
v 6.5 7 -0.5
v 6.5 8 -0.5
v 7.5 7 -0.5
v 7.5 8 -0.5
f -32/2/4 -31/2/4 -30/2/4
f -30/2/4 -31/2/4 -29/2/4
f -28/2/4 -27/2/4 -26/2/4
f -26/2/4 -27/2/4 -25/2/4
f -24/2/4 -23/2/4 -16/2/4
f -16/2/4 -23/2/4 -15/2/4
f -22/2/4 -21/2/4 -14/2/4
f -14/2/4 -21/2/4 -13/2/4
f -20/2/4 -19/2/4 -12/2/4
f -12/2/4 -19/2/4 -11/2/4
f -18/2/4 -17/2/4 -10/2/4
f -10/2/4 -17/2/4 -9/2/4
f -8/2/4 -7/2/4 -6/2/4
f -6/2/4 -7/2/4 -5/2/4
f -4/2/4 -3/2/4 -2/2/4
f -2/2/4 -3/2/4 -1/2/4
v -6.5 6 -1.5
v -6.5 9 -1.5
v -5.5 6 -1.5
v -5.5 9 -1.5
v -3.5 6 -1.5
v -3.5 9 -1.5
v -2.5 5 -1.5
v -2.5 6 -1.5
v -2.5 9 -1.5
v -2.5 10 -1.5
v -1.5 1 -1.5
v -1.5 2 -1.5
v -1.5 4 -1.5
v -1.5 5 -1.5
v -1.5 6 -1.5
v -1.5 9 -1.5
v -1.5 10 -1.5
v -1.5 11 -1.5
v -1.5 13 -1.5
v -1.5 14 -1.5
v 1.5 1 -1.5
v 1.5 2 -1.5
v 1.5 4 -1.5
v 1.5 5 -1.5
v 1.5 6 -1.5
v 1.5 9 -1.5
v 1.5 10 -1.5
v 1.5 11 -1.5
v 1.5 13 -1.5
v 1.5 14 -1.5
v 2.5 5 -1.5
v 2.5 6 -1.5
v 2.5 9 -1.5
v 2.5 10 -1.5
v 3.5 6 -1.5
v 3.5 9 -1.5
v 5.5 6 -1.5
v 5.5 9 -1.5
v 6.5 6 -1.5
v 6.5 9 -1.5
f -40/1/4 -39/1/4 -38/1/4
f -38/1/4 -39/1/4 -37/1/4
f -36/1/4 -35/1/4 -33/1/4
f -33/1/4 -35/1/4 -32/1/4
f -34/2/4 -33/2/4 -27/2/4
f -27/2/4 -33/2/4 -26/2/4
f -32/2/4 -31/2/4 -25/2/4
f -25/2/4 -31/2/4 -24/2/4
f -30/1/4 -29/1/4 -20/1/4
f -20/1/4 -29/1/4 -19/1/4
f -28/1/4 -27/1/4 -18/1/4
f -18/1/4 -27/1/4 -17/1/4
f -24/1/4 -23/1/4 -14/1/4
f -14/1/4 -23/1/4 -13/1/4
f -22/1/4 -21/1/4 -12/1/4
f -12/1/4 -21/1/4 -11/1/4
f -17/2/4 -16/2/4 -10/2/4
f -10/2/4 -16/2/4 -9/2/4
f -15/2/4 -14/2/4 -8/2/4
f -8/2/4 -14/2/4 -7/2/4
f -9/1/4 -8/1/4 -6/1/4
f -6/1/4 -8/1/4 -5/1/4
f -4/1/4 -3/1/4 -2/1/4
f -2/1/4 -3/1/4 -1/1/4
v -2.5 6 -2.5
v -2.5 9 -2.5
v -1.5 5 -2.5
v -1.5 6 -2.5
v -1.5 9 -2.5
v -1.5 10 -2.5
v 1.5 5 -2.5
v 1.5 6 -2.5
v 1.5 9 -2.5
v 1.5 10 -2.5
v 2.5 6 -2.5
v 2.5 9 -2.5
f -12/2/4 -11/2/4 -9/2/4
f -9/2/4 -11/2/4 -8/2/4
f -10/2/4 -9/2/4 -6/2/4
f -6/2/4 -9/2/4 -5/2/4
f -8/2/4 -7/2/4 -4/2/4
f -4/2/4 -7/2/4 -3/2/4
f -5/2/4 -4/2/4 -2/2/4
f -2/2/4 -4/2/4 -1/2/4
v -1.5 6 -3.5
v -1.5 9 -3.5
v -0.5 7 -3.5
v -0.5 8 -3.5
v 0.5 7 -3.5
v 0.5 8 -3.5
v 1.5 6 -3.5
v 1.5 9 -3.5
f -8/1/4 -7/1/4 -6/1/4
f -6/1/4 -7/1/4 -5/1/4
f -8/1/4 -6/1/4 -4/1/4
f -5/1/4 -7/1/4 -3/1/4
f -8/1/4 -4/1/4 -2/1/4
f -4/1/4 -3/1/4 -2/1/4
f -3/1/4 -7/1/4 -1/1/4
f -2/1/4 -3/1/4 -1/1/4
v -1.5 6 -6.5
v -1.5 9 -6.5
v -0.5 7 -6.5
v -0.5 8 -6.5
v 0.5 7 -6.5
v 0.5 8 -6.5
v 1.5 6 -6.5
v 1.5 9 -6.5
f -8/1/4 -7/1/4 -6/1/4
f -6/1/4 -7/1/4 -5/1/4
f -8/1/4 -6/1/4 -4/1/4
f -5/1/4 -7/1/4 -3/1/4
f -8/1/4 -4/1/4 -2/1/4
f -4/1/4 -3/1/4 -2/1/4
f -3/1/4 -7/1/4 -1/1/4
f -2/1/4 -3/1/4 -1/1/4
v -0.5 7 -7.5
v -0.5 8 -7.5
v 0.5 7 -7.5
v 0.5 8 -7.5
f -4/2/4 -3/2/4 -2/2/4
f -2/2/4 -3/2/4 -1/2/4
v -0.5 0 0.5
v 0.5 0 0.5
v -0.5 0 -0.5
v 0.5 0 -0.5
f -2/2/5 -3/2/5 -4/2/5
f -1/2/5 -3/2/5 -2/2/5
v -1.5 1 1.5
v 1.5 1 1.5
v -0.5 1 0.5
v 0.5 1 0.5
v -0.5 1 -0.5
v 0.5 1 -0.5
v -1.5 1 -1.5
v 1.5 1 -1.5
f -6/1/5 -7/1/5 -8/1/5
f -5/1/5 -7/1/5 -6/1/5
f -4/1/5 -6/1/5 -8/1/5
f -3/1/5 -7/1/5 -5/1/5
f -2/1/5 -4/1/5 -8/1/5
f -2/1/5 -3/1/5 -4/1/5
f -1/1/5 -7/1/5 -3/1/5
f -1/1/5 -3/1/5 -2/1/5
v -1.5 4 1.5
v 1.5 4 1.5
v -0.5 4 0.5
v 0.5 4 0.5
v -0.5 4 -0.5
v 0.5 4 -0.5
v -1.5 4 -1.5
v 1.5 4 -1.5
f -6/1/5 -7/1/5 -8/1/5
f -5/1/5 -7/1/5 -6/1/5
f -4/1/5 -6/1/5 -8/1/5
f -3/1/5 -7/1/5 -5/1/5
f -2/1/5 -4/1/5 -8/1/5
f -2/1/5 -3/1/5 -4/1/5
f -1/1/5 -7/1/5 -3/1/5
f -1/1/5 -3/1/5 -2/1/5
v -1.5 5 2.5
v 1.5 5 2.5
v -2.5 5 1.5
v -1.5 5 1.5
v 1.5 5 1.5
v 2.5 5 1.5
v -2.5 5 -1.5
v -1.5 5 -1.5
v 1.5 5 -1.5
v 2.5 5 -1.5
v -1.5 5 -2.5
v 1.5 5 -2.5
f -9/2/5 -11/2/5 -12/2/5
f -8/2/5 -11/2/5 -9/2/5
f -6/2/5 -9/2/5 -10/2/5
f -5/2/5 -9/2/5 -6/2/5
f -4/2/5 -7/2/5 -8/2/5
f -3/2/5 -7/2/5 -4/2/5
f -2/2/5 -4/2/5 -5/2/5
f -1/2/5 -4/2/5 -2/2/5
v -1.5 6 6.5
v 1.5 6 6.5
v -1.5 6 5.5
v 1.5 6 5.5
v -1.5 6 3.5
v 1.5 6 3.5
v -2.5 6 2.5
v -1.5 6 2.5
v 1.5 6 2.5
v 2.5 6 2.5
v -6.5 6 1.5
v -5.5 6 1.5
v -3.5 6 1.5
v -2.5 6 1.5
v -1.5 6 1.5
v 1.5 6 1.5
v 2.5 6 1.5
v 3.5 6 1.5
v 5.5 6 1.5
v 6.5 6 1.5
v -6.5 6 -1.5
v -5.5 6 -1.5
v -3.5 6 -1.5
v -2.5 6 -1.5
v -1.5 6 -1.5
v 1.5 6 -1.5
v 2.5 6 -1.5
v 3.5 6 -1.5
v 5.5 6 -1.5
v 6.5 6 -1.5
v -2.5 6 -2.5
v -1.5 6 -2.5
v 1.5 6 -2.5
v 2.5 6 -2.5
v -1.5 6 -3.5
v 1.5 6 -3.5
v -1.5 6 -5.5
v 1.5 6 -5.5
v -1.5 6 -6.5
v 1.5 6 -6.5
f -38/1/5 -39/1/5 -40/1/5
f -37/1/5 -39/1/5 -38/1/5
f -33/1/5 -35/1/5 -36/1/5
f -32/1/5 -35/1/5 -33/1/5
f -27/2/5 -33/2/5 -34/2/5
f -26/2/5 -33/2/5 -27/2/5
f -25/2/5 -31/2/5 -32/2/5
f -24/2/5 -31/2/5 -25/2/5
f -20/1/5 -29/1/5 -30/1/5
f -19/1/5 -29/1/5 -20/1/5
f -18/1/5 -27/1/5 -28/1/5
f -17/1/5 -27/1/5 -18/1/5
f -14/1/5 -23/1/5 -24/1/5
f -13/1/5 -23/1/5 -14/1/5
f -12/1/5 -21/1/5 -22/1/5
f -11/1/5 -21/1/5 -12/1/5
f -10/2/5 -16/2/5 -17/2/5
f -9/2/5 -16/2/5 -10/2/5
f -8/2/5 -14/2/5 -15/2/5
f -7/2/5 -14/2/5 -8/2/5
f -6/1/5 -8/1/5 -9/1/5
f -5/1/5 -8/1/5 -6/1/5
f -2/1/5 -3/1/5 -4/1/5
f -1/1/5 -3/1/5 -2/1/5
v -0.5 7 7.5
v 0.5 7 7.5
v -0.5 7 6.5
v 0.5 7 6.5
v -0.5 7 5.5
v 0.5 7 5.5
v -0.5 7 3.5
v 0.5 7 3.5
v -7.5 7 0.5
v -6.5 7 0.5
v -5.5 7 0.5
v -3.5 7 0.5
v 3.5 7 0.5
v 5.5 7 0.5
v 6.5 7 0.5
v 7.5 7 0.5
v -7.5 7 -0.5
v -6.5 7 -0.5
v -5.5 7 -0.5
v -3.5 7 -0.5
v 3.5 7 -0.5
v 5.5 7 -0.5
v 6.5 7 -0.5
v 7.5 7 -0.5
v -0.5 7 -3.5
v 0.5 7 -3.5
v -0.5 7 -5.5
v 0.5 7 -5.5
v -0.5 7 -6.5
v 0.5 7 -6.5
v -0.5 7 -7.5
v 0.5 7 -7.5
f -30/2/5 -31/2/5 -32/2/5
f -29/2/5 -31/2/5 -30/2/5
f -26/2/5 -27/2/5 -28/2/5
f -25/2/5 -27/2/5 -26/2/5
f -16/2/5 -23/2/5 -24/2/5
f -15/2/5 -23/2/5 -16/2/5
f -14/2/5 -21/2/5 -22/2/5
f -13/2/5 -21/2/5 -14/2/5
f -12/2/5 -19/2/5 -20/2/5
f -11/2/5 -19/2/5 -12/2/5
f -10/2/5 -17/2/5 -18/2/5
f -9/2/5 -17/2/5 -10/2/5
f -6/2/5 -7/2/5 -8/2/5
f -5/2/5 -7/2/5 -6/2/5
f -2/2/5 -3/2/5 -4/2/5
f -1/2/5 -3/2/5 -2/2/5
v -1.5 13 1.5
v 1.5 13 1.5
v -0.5 13 0.5
v 0.5 13 0.5
v -0.5 13 -0.5
v 0.5 13 -0.5
v -1.5 13 -1.5
v 1.5 13 -1.5
f -6/1/5 -7/1/5 -8/1/5
f -5/1/5 -7/1/5 -6/1/5
f -4/1/5 -6/1/5 -8/1/5
f -3/1/5 -7/1/5 -5/1/5
f -2/1/5 -4/1/5 -8/1/5
f -2/1/5 -3/1/5 -4/1/5
f -1/1/5 -7/1/5 -3/1/5
f -1/1/5 -3/1/5 -2/1/5
v -1.5 2 1.5
v 1.5 2 1.5
v -0.5 2 0.5
v 0.5 2 0.5
v -0.5 2 -0.5
v 0.5 2 -0.5
v -1.5 2 -1.5
v 1.5 2 -1.5
f -8/1/6 -7/1/6 -6/1/6
f -6/1/6 -7/1/6 -5/1/6
f -8/1/6 -6/1/6 -4/1/6
f -5/1/6 -7/1/6 -3/1/6
f -8/1/6 -4/1/6 -2/1/6
f -4/1/6 -3/1/6 -2/1/6
f -3/1/6 -7/1/6 -1/1/6
f -2/1/6 -3/1/6 -1/1/6
v -0.5 8 7.5
v 0.5 8 7.5
v -0.5 8 6.5
v 0.5 8 6.5
v -0.5 8 5.5
v 0.5 8 5.5
v -0.5 8 3.5
v 0.5 8 3.5
v -7.5 8 0.5
v -6.5 8 0.5
v -5.5 8 0.5
v -3.5 8 0.5
v 3.5 8 0.5
v 5.5 8 0.5
v 6.5 8 0.5
v 7.5 8 0.5
v -7.5 8 -0.5
v -6.5 8 -0.5
v -5.5 8 -0.5
v -3.5 8 -0.5
v 3.5 8 -0.5
v 5.5 8 -0.5
v 6.5 8 -0.5
v 7.5 8 -0.5
v -0.5 8 -3.5
v 0.5 8 -3.5
v -0.5 8 -5.5
v 0.5 8 -5.5
v -0.5 8 -6.5
v 0.5 8 -6.5
v -0.5 8 -7.5
v 0.5 8 -7.5
f -32/2/6 -31/2/6 -30/2/6
f -30/2/6 -31/2/6 -29/2/6
f -28/2/6 -27/2/6 -26/2/6
f -26/2/6 -27/2/6 -25/2/6
f -24/2/6 -23/2/6 -16/2/6
f -16/2/6 -23/2/6 -15/2/6
f -22/2/6 -21/2/6 -14/2/6
f -14/2/6 -21/2/6 -13/2/6
f -20/2/6 -19/2/6 -12/2/6
f -12/2/6 -19/2/6 -11/2/6
f -18/2/6 -17/2/6 -10/2/6
f -10/2/6 -17/2/6 -9/2/6
f -8/2/6 -7/2/6 -6/2/6
f -6/2/6 -7/2/6 -5/2/6
f -4/2/6 -3/2/6 -2/2/6
f -2/2/6 -3/2/6 -1/2/6
v -1.5 9 6.5
v 1.5 9 6.5
v -1.5 9 5.5
v 1.5 9 5.5
v -1.5 9 3.5
v 1.5 9 3.5
v -2.5 9 2.5
v -1.5 9 2.5
v 1.5 9 2.5
v 2.5 9 2.5
v -6.5 9 1.5
v -5.5 9 1.5
v -3.5 9 1.5
v -2.5 9 1.5
v -1.5 9 1.5
v 1.5 9 1.5
v 2.5 9 1.5
v 3.5 9 1.5
v 5.5 9 1.5
v 6.5 9 1.5
v -6.5 9 -1.5
v -5.5 9 -1.5
v -3.5 9 -1.5
v -2.5 9 -1.5
v -1.5 9 -1.5
v 1.5 9 -1.5
v 2.5 9 -1.5
v 3.5 9 -1.5
v 5.5 9 -1.5
v 6.5 9 -1.5
v -2.5 9 -2.5
v -1.5 9 -2.5
v 1.5 9 -2.5
v 2.5 9 -2.5
v -1.5 9 -3.5
v 1.5 9 -3.5
v -1.5 9 -5.5
v 1.5 9 -5.5
v -1.5 9 -6.5
v 1.5 9 -6.5
f -40/1/6 -39/1/6 -38/1/6
f -38/1/6 -39/1/6 -37/1/6
f -36/1/6 -35/1/6 -33/1/6
f -33/1/6 -35/1/6 -32/1/6
f -34/2/6 -33/2/6 -27/2/6
f -27/2/6 -33/2/6 -26/2/6
f -32/2/6 -31/2/6 -25/2/6
f -25/2/6 -31/2/6 -24/2/6
f -30/1/6 -29/1/6 -20/1/6
f -20/1/6 -29/1/6 -19/1/6
f -28/1/6 -27/1/6 -18/1/6
f -18/1/6 -27/1/6 -17/1/6
f -24/1/6 -23/1/6 -14/1/6
f -14/1/6 -23/1/6 -13/1/6
f -22/1/6 -21/1/6 -12/1/6
f -12/1/6 -21/1/6 -11/1/6
f -17/2/6 -16/2/6 -10/2/6
f -10/2/6 -16/2/6 -9/2/6
f -15/2/6 -14/2/6 -8/2/6
f -8/2/6 -14/2/6 -7/2/6
f -9/1/6 -8/1/6 -6/1/6
f -6/1/6 -8/1/6 -5/1/6
f -4/1/6 -3/1/6 -2/1/6
f -2/1/6 -3/1/6 -1/1/6
v -1.5 10 2.5
v 1.5 10 2.5
v -2.5 10 1.5
v -1.5 10 1.5
v 1.5 10 1.5
v 2.5 10 1.5
v -2.5 10 -1.5
v -1.5 10 -1.5
v 1.5 10 -1.5
v 2.5 10 -1.5
v -1.5 10 -2.5
v 1.5 10 -2.5
f -12/2/6 -11/2/6 -9/2/6
f -9/2/6 -11/2/6 -8/2/6
f -10/2/6 -9/2/6 -6/2/6
f -6/2/6 -9/2/6 -5/2/6
f -8/2/6 -7/2/6 -4/2/6
f -4/2/6 -7/2/6 -3/2/6
f -5/2/6 -4/2/6 -2/2/6
f -2/2/6 -4/2/6 -1/2/6
v -1.5 11 1.5
v 1.5 11 1.5
v -0.5 11 0.5
v 0.5 11 0.5
v -0.5 11 -0.5
v 0.5 11 -0.5
v -1.5 11 -1.5
v 1.5 11 -1.5
f -8/1/6 -7/1/6 -6/1/6
f -6/1/6 -7/1/6 -5/1/6
f -8/1/6 -6/1/6 -4/1/6
f -5/1/6 -7/1/6 -3/1/6
f -8/1/6 -4/1/6 -2/1/6
f -4/1/6 -3/1/6 -2/1/6
f -3/1/6 -7/1/6 -1/1/6
f -2/1/6 -3/1/6 -1/1/6
v -1.5 14 1.5
v 1.5 14 1.5
v -0.5 14 0.5
v 0.5 14 0.5
v -0.5 14 -0.5
v 0.5 14 -0.5
v -1.5 14 -1.5
v 1.5 14 -1.5
f -8/1/6 -7/1/6 -6/1/6
f -6/1/6 -7/1/6 -5/1/6
f -8/1/6 -6/1/6 -4/1/6
f -5/1/6 -7/1/6 -3/1/6
f -8/1/6 -4/1/6 -2/1/6
f -4/1/6 -3/1/6 -2/1/6
f -3/1/6 -7/1/6 -1/1/6
f -2/1/6 -3/1/6 -1/1/6
v -0.5 15 0.5
v 0.5 15 0.5
v -0.5 15 -0.5
v 0.5 15 -0.5
f -4/2/6 -3/2/6 -2/2/6
f -2/2/6 -3/2/6 -1/2/6
